<svg xmlns="http://www.w3.org/2000/svg" width="16" height="16" viewBox="0 0 16 16">
  <g id="Add_-_Icon" data-name="Add - Icon" transform="translate(-1676 -124)">
    <rect id="Rectangle_228221" data-name="Rectangle 228221" width="16" height="16" transform="translate(1676 124)" fill="#21263c" opacity="0"/>
    <path id="Filter" d="M1.821.25H9.666a1.422,1.422,0,0,1,1.3.847,1.485,1.485,0,0,1-.2,1.565L8.027,6.03a.183.183,0,0,0-.041.115v5.962A1.459,1.459,0,0,1,6.544,13.58a1.4,1.4,0,0,1-1.01-.432L3.921,11.5a1.478,1.478,0,0,1-.421-1.04V6.146A.183.183,0,0,0,3.46,6.03L.717,2.662A1.485,1.485,0,0,1,.52,1.1,1.422,1.422,0,0,1,1.821.25ZM6.544,12.29a.181.181,0,0,0,.182-.182V6.146A1.494,1.494,0,0,1,7.059,5.2L9.8,1.836a.174.174,0,0,0,.024-.192.167.167,0,0,0-.16-.1H1.821a.167.167,0,0,0-.16.1.174.174,0,0,0,.024.192L4.428,5.2a1.494,1.494,0,0,1,.333.941v4.311a.184.184,0,0,0,.052.127l1.613,1.651A.159.159,0,0,0,6.544,12.29Z" transform="translate(1678.257 125.085)" fill="#21263c"/>
  </g>
</svg>
