<?xml version="1.0" standalone="no"?>
<!DOCTYPE svg PUBLIC "-//W3C//DTD SVG 20010904//EN"
 "http://www.w3.org/TR/2001/REC-SVG-20010904/DTD/svg10.dtd">
<svg version="1.0" xmlns="http://www.w3.org/2000/svg"
 width="512.000000pt" height="512.000000pt" viewBox="0 0 512.000000 512.000000"
 preserveAspectRatio="xMidYMid meet">

<g transform="translate(0.000000,512.000000) scale(0.100000,-0.100000)"
fill="#000000" stroke="none">
<path d="M3519 5105 c-37 -20 -49 -62 -49 -166 l0 -89 275 0 275 0 0 106 c0
103 -1 106 -29 135 l-29 29 -209 0 c-161 -1 -214 -4 -234 -15z"/>
<path d="M3470 4525 l0 -135 275 0 275 0 0 135 0 135 -275 0 -275 0 0 -135z"/>
<path d="M397 4546 l-27 -25 0 -1686 0 -1686 25 -24 24 -25 853 0 c545 0 876
-4 917 -11 80 -12 148 -41 224 -91 l57 -38 -2 1662 -3 1663 -22 55 c-33 81
-101 153 -181 192 l-67 33 -886 3 -886 2 -26 -24z m1008 -350 c44 -19 55 -42
55 -119 l0 -63 58 -24 c68 -28 148 -104 180 -171 26 -54 46 -151 36 -182 -12
-41 -45 -67 -84 -67 -63 0 -88 31 -105 132 -11 71 -95 137 -173 138 -37 0 -97
-23 -125 -48 -49 -44 -70 -135 -46 -199 13 -34 55 -80 90 -98 14 -8 64 -19
110 -25 106 -13 175 -47 239 -117 92 -100 120 -250 71 -375 -31 -80 -106 -160
-187 -198 l-64 -31 0 -65 c0 -59 -3 -68 -29 -95 -20 -20 -39 -29 -61 -29 -22
0 -41 9 -61 29 -26 27 -29 35 -29 99 0 68 -1 70 -27 77 -40 9 -117 61 -153
101 -71 82 -112 229 -80 288 24 47 90 59 133 26 24 -19 28 -29 42 -113 7 -42
52 -100 96 -123 15 -7 51 -14 80 -14 104 0 179 76 179 179 0 62 -16 97 -64
139 -36 31 -52 36 -158 47 -115 13 -241 104 -291 213 -18 38 -22 66 -22 147 0
87 3 107 26 155 34 72 106 143 180 177 l59 27 0 58 c0 71 16 107 55 124 37 16
30 16 70 0z m730 -1920 c61 -26 76 -103 29 -147 l-26 -24 -711 -3 c-689 -2
-713 -2 -744 17 -59 36 -52 129 11 157 47 20 1392 20 1441 0z m24 -472 c41
-34 44 -92 6 -129 l-24 -25 -723 0 c-553 1 -727 4 -739 13 -56 43 -48 132 15
157 11 5 339 9 728 9 l706 1 31 -26z"/>
<path d="M2913 4555 c-105 -32 -195 -114 -235 -214 l-23 -56 -3 -1663 -2
-1663 45 31 c71 49 164 88 235 99 41 7 378 11 918 11 l853 0 24 25 25 24 0
1686 0 1686 -26 24 -27 25 -243 0 -243 0 -3 -1132 -3 -1133 -22 -60 c-24 -67
-271 -506 -306 -544 -62 -67 -181 -69 -250 -3 -31 30 -277 454 -311 536 -21
51 -21 57 -24 1194 l-2 1142 -168 -1 c-108 0 -182 -5 -209 -14z"/>
<path d="M3477 4204 c-4 -4 -7 -416 -7 -916 l0 -908 95 0 95 0 -2 913 -3 912
-85 3 c-47 1 -89 0 -93 -4z"/>
<path d="M3840 3295 l0 -915 90 0 90 0 0 915 0 915 -90 0 -90 0 0 -915z"/>
<path d="M26 3989 l-26 -31 0 -1804 c0 -1986 -4 -1850 61 -1873 23 -8 332 -11
1056 -11 l1024 0 24 -25 c21 -20 25 -33 25 -88 0 -82 15 -124 51 -142 41 -22
597 -22 638 0 36 18 51 60 51 142 0 55 4 68 25 88 l24 25 1024 0 c724 0 1033
3 1056 11 65 23 61 -113 61 1873 l0 1804 -26 31 c-24 29 -31 31 -90 31 l-64 0
-2 -1677 c-3 -1536 -4 -1681 -20 -1714 -25 -56 -88 -120 -143 -145 l-50 -24
-2165 0 -2165 0 -50 24 c-55 25 -118 89 -143 145 -16 33 -17 178 -20 1714 l-2
1677 -64 0 c-59 0 -66 -2 -90 -31z"/>
<path d="M3550 2184 c0 -11 192 -344 199 -344 5 0 188 314 199 342 2 4 -87 8
-197 8 -111 0 -201 -3 -201 -6z"/>
<path d="M370 813 c1 -123 5 -139 47 -161 33 -18 2033 -17 2033 1 -1 60 -104
183 -189 224 l-56 28 -905 5 c-498 3 -911 9 -917 13 -10 6 -13 -18 -13 -110z"/>
<path d="M4737 923 c-5 -4 -417 -10 -915 -13 l-907 -5 -58 -29 c-32 -16 -78
-51 -103 -78 -42 -45 -83 -117 -84 -145 0 -18 1996 -19 2033 -2 14 6 30 21 36
33 13 24 11 253 -2 239z"/>
</g>
</svg>
