<svg xmlns="http://www.w3.org/2000/svg" xmlns:xlink="http://www.w3.org/1999/xlink" width="252.391" height="184.513" viewBox="0 0 252.391 184.513">
  <defs>
    <clipPath id="clip-path">
      <path id="Path_571839" data-name="Path 571839" d="M15.895,68.1c4.914,6.162,11.437,11.421,18.92,2.256l2.4-.564C49.781,46.531,55.994,15.933,67.289,0,65.03,3.243,52.746,4.23,46.675,4.512c1.271,4.794-6.495,6.373-19.485,10.575A117.268,117.268,0,0,0,0,28.051S8.694,59.08,15.895,68.1Z" transform="translate(0 0)"/>
    </clipPath>
  </defs>
  <g id="Group_277339" data-name="Group 277339" transform="translate(-962.137 -496.948)">
    <g id="MvzHRIbWvRSAYvCAs-yZo" transform="translate(1070.343 500.139)">
      <path id="ACTQkaVyV_kVU5mDIn_j8" d="M-883.363-1110.689l7.718-58.367.016-.061.122-.061,21.045-10.344-8.1,63.943Z" transform="translate(927.721 1181.21)" fill="#fff"/>
      <path id="hnVUcnOB-z6DEz14jWGt3" d="M-862.178-1192.714l-7.779,62.492-.184,1.421v.015l-.061.55a1.148,1.148,0,0,1-1.268,1.008,1.157,1.157,0,0,1-.993-.886,1.061,1.061,0,0,1-.015-.382v-.03l.245-1.91.092-.764,7.428-59.635-18.615,9.657-7.183,54.348-.107.81-.306,2.246-.061.428a1.15,1.15,0,0,1-1.131.993.516.516,0,0,1-.153-.015,1.151,1.151,0,0,1-.993-1.283l.245-1.8.107-.809,7.382-55.815a1.139,1.139,0,0,1,.611-.871l.122-.061,20.954-10.864a1.141,1.141,0,0,1,1.544.489,1.153,1.153,0,0,1,.122.672Z" transform="translate(936.476 1194.005)" fill="#232323"/>
      <path id="TuoX6Kee9Y777LcEW6n0" d="M-1197.684-654.875a2.839,2.839,0,0,0-1.024-.2h-.122a1.922,1.922,0,0,0-.5.076l-17.882,4.293-1.192.29-1.192.29-.107.81,2.384-.581,18.157-4.37.229-.046c.077,0,.138-.015.214-.015.061,0,.26.015.275.015s.076.015.107.015.061.015.092.015a1.49,1.49,0,0,1,.244.077c.015,0,.031.015.061.015a.723.723,0,0,1,.153.076.835.835,0,0,1,.122.077.08.08,0,0,0,.061.03,2.45,2.45,0,0,1,.413.382l.092.138.046.092c.031.061.076.122.107.2.015.031.015.046.031.076a1.938,1.938,0,0,1,.107.428l.184-1.421A2.806,2.806,0,0,0-1197.684-654.875Zm-65.352,16.593a1.034,1.034,0,0,1,.107-.168C-1262.975-638.389-1263.006-638.328-1263.037-638.282Z" transform="translate(1263.149 717.879)" fill="#fff"/>
      <path id="cGBKLYO_NAvB4S7CLMJ07" d="M-1199.1-644.839l-62.418,15a1.916,1.916,0,0,1-1.162-3.652l42.137-10.13,2.384-.581,18.157-4.37a1.857,1.857,0,0,1,2.048.81A1.958,1.958,0,0,1-1199.1-644.839Z" transform="translate(1264.004 712.181)" fill="#232323"/>
      <g id="pu84zJ2PoGfhGJoQ31eja" transform="translate(53.834 65.403)">
        <ellipse id="fGIYboTv8NOnsYBpkfsx2" cx="0.688" cy="0.687" rx="0.688" ry="0.687" transform="translate(7.642)" fill="#fff"/>
        <path id="OJyvAC7ERW9V-c4wNQmZ1" d="M-801.44-623.945a.613.613,0,0,1-.611-.611.607.607,0,0,1,.474-.6l4.585-1.07a.6.6,0,0,1,.734.458.6.6,0,0,1-.458.734l-4.585,1.069A.424.424,0,0,1-801.44-623.945Z" transform="translate(802.051 627.001)" fill="#fff"/>
      </g>
    </g>
    <g id="Oba3wrSZPEkEme6RGdXH9" transform="translate(1214.527 681.461) rotate(180)">
      <path id="oT06km5kQBQdI7YhyLyfL" d="M10.477,100.449A38.249,38.249,0,0,1,20.854,86.575c3.375-2.693,5.93-5.076,14.981-7.769,12.722-3.779,17.494-13.1,15.658-25.084-1.313-8.531,1.214-13.353,3.812-17.907C62.93,22.419,55.305,4.23,32.714,0c0,0-4.095,12.606-14.119,28.764C5.379,50.07-3.9,87,1.624,96.9Z" transform="translate(194.222 58.625)" fill="#232323"/>
      <path id="fkQI3TPS31z8PshXsp3oC" d="M1.129,25.165c1.214-1.438,6.3-2.4,8.81-2.609,6.2-3.821,5.892-16.063,5.4-20.811,0,0,17-5.086,21.729,2.105,0,0-8.36,15.166-9.687,27.363,1.641-.936,5.426-2.484,5.535-2.538,7.438,5.574,8.539,18.625-1.2,24.7-.014,0-.014.014-.028.014-7.21,4.659-15.91,3.646-22.916-5.682-3.374-4.76-3.4-5.242-5.732-5.527-1.483-.141-.918-2.2-.155-3.088C1.863,36.558-1.837,28.7,1.129,25.165Z" transform="translate(171.123 128.016)" fill="#fff"/>
      <path id="YzbpZ5ELSCQISPUWS2wjp" d="M27.306,0a21.014,21.014,0,0,1,4.8.5,8.8,8.8,0,0,1,5.6,3.511.35.35,0,0,1,.014.361c-.082.148-8.041,14.7-9.567,26.568,1.51-.775,3.836-1.754,4.672-2.106l.286-.121a.358.358,0,0,1,.361.036,15.622,15.622,0,0,1,5.967,13.077,14.887,14.887,0,0,1-7.192,12.2l-.017.01-.036.02a15.521,15.521,0,0,1-11.767,2.433c-4.274-.905-8.173-3.67-11.588-8.218-.438-.617-.815-1.156-1.149-1.634-2.279-3.26-2.465-3.526-4.347-3.756a1.267,1.267,0,0,1-1.117-.787,3.156,3.156,0,0,1,.6-2.705c-.072-.177-.155-.375-.245-.591C1.221,35.513-1.625,28.682,1.216,25.29h0c1.337-1.583,6.556-2.51,8.964-2.724,2.553-1.614,4.227-4.9,4.977-9.77a44.165,44.165,0,0,0,.185-10.663.35.35,0,0,1,.248-.371A49.593,49.593,0,0,1,24.754.1Q26.085,0,27.306,0Zm9.7,4.221c-4.357-6.16-18.76-2.472-20.943-1.87.323,3.357,1.144,16.7-5.589,20.852a.35.35,0,0,1-.154.051C7.4,23.5,2.8,24.5,1.752,25.739c-2.569,3.066.27,9.879,1.483,12.788.125.3.235.564.325.788a.35.35,0,0,1-.059.358,2.645,2.645,0,0,0-.621,2.159.566.566,0,0,0,.544.354c2.2.269,2.552.773,4.844,4.051.333.477.709,1.015,1.14,1.623,3.306,4.4,7.065,7.077,11.169,7.946a14.847,14.847,0,0,0,11.272-2.355l.022-.013a.33.33,0,0,1,.039-.022,14.109,14.109,0,0,0,6.835-11.622,14.94,14.94,0,0,0-5.528-12.366l-.116.049c-.948.4-3.831,1.613-5.2,2.391a.35.35,0,0,1-.521-.342C28.624,20.134,36.046,6.017,37.01,4.221ZM1.484,25.514h0Z" transform="translate(170.768 127.667)" fill="#232323"/>
      <path id="OGgl3Q8zM7JCfilLFabV" d="M3.856,4.1C5.169,2.622,5.225.718,4.449.168S2.02.45,1,2.143C-.041,3.877-.324,5.611.411,6.076,1.173,6.556,2.557,5.569,3.856,4.1Z" transform="translate(181.386 165.787)" fill="#232323"/>
      <path id="fdg5BhKO0ZY82SbMlyqz6" d="M4.288.428A18.377,18.377,0,0,0,2.015,4.756a.515.515,0,0,1-.664.324C.645,4.841-.428,4.249.179,2.966.942,1.4,3.187-.094,4.09,0a.258.258,0,0,1,.226.3A.127.127,0,0,1,4.288.428Z" transform="translate(177.595 166.261)" fill="#232323"/>
      <path id="wi46uT4I2mWmJKD9E6FMO" d="M26.22,1.355C24.731-3.089-.064,4.816,0,4.88L6.227,16.654C8.979,14.951,27.233,4.356,26.22,1.355Z" transform="translate(202.919 152.094)" fill="#b7d4fe"/>
      <path id="PXXEHmAToaY6FCtGnhYa" d="M9.827,10.18A13.222,13.222,0,0,0,1.1.169,4.842,4.842,0,0,0,0,0L.212.451l.325.691L6.41,12.253c.028,0,2-1.227,3.417-2.073Z" transform="translate(202.721 156.495)" fill="#232323"/>
      <path id="nTe-77UH9uXgNHiVi7Vz" d="M0,19.393c.361-.536.882-1.274,1.345-1.853a.014.014,0,0,1,.014-.014c.841-1.069,1.936-2.332,3.176-3.659C8,10.156,12.609,5.946,16.021,4.11c2.546-1.37,5.713-2.946,5.972-3.011C22.036,1.08,23.744.312,23.9.26c.044-.014.29-.2.419-.26a14.952,14.952,0,0,1-.477,25.052c-.115.072-.217.145-.333.217-.014,0-.014.014-.028.014a15.378,15.378,0,0,1-18.8-.91A25.125,25.125,0,0,1,0,19.393Z" transform="translate(179.544 156.459)" fill="#b7d4fe"/>
      <path id="vYzVxHSeJvYxl5G3piLh9" d="M3.869,8.686s4.193,1.495,7.06-1.2C13.625,4.95,11,.226,4.109,0A12.7,12.7,0,0,0,0,.635Z" transform="translate(191.68 152.095)" fill="#fff"/>
      <path id="YBfNccSDtuXLFa-iV6Pw3" d="M1.941,0c4.8,0,7.481,2.064,8.345,3.988A3.484,3.484,0,0,1,9.48,8.1C6.492,10.909,2.243,9.439,2.063,9.375A.35.35,0,0,1,2.3,8.716c.05.018,4.034,1.384,6.7-1.124a2.777,2.777,0,0,0,.648-3.318C8.357,1.4,4.063.442.381.771a.35.35,0,0,1-.062-.7Q1.167,0,1.941,0Z" transform="translate(193.369 151.735)" fill="#232323"/>
      <path id="yA2n0H4C7z3VoqJWBGzYD" d="M8.217,5.048c-.551.8-2.1.268-3.036.071A17.847,17.847,0,0,0,0,4.6c.071-.042.141-.085.226-.141A9.771,9.771,0,0,0,3.685,0C7.215,1.269,8.81,4.188,8.217,5.048Z" transform="translate(181.064 145.976)" fill="#232323"/>
      <path id="S59DOe97B_VD4eGr23EEb" d="M4.035,0a.347.347,0,0,1,.118.021A9.17,9.17,0,0,1,7.377,1.985,5.775,5.775,0,0,1,8.917,4.25,1.528,1.528,0,0,1,8.855,5.6c-.606.884-1.968.556-2.962.316-.155-.037-.3-.073-.435-.1A17.51,17.51,0,0,0,.368,5.3a.35.35,0,0,1-.2-.649c.067-.04.133-.08.212-.132A9.4,9.4,0,0,0,3.713.213.35.35,0,0,1,4.035,0Zm3.5,5.477A.86.86,0,0,0,8.279,5.2h0a.936.936,0,0,0-.027-.735A6.91,6.91,0,0,0,4.222.795,10.406,10.406,0,0,1,1.468,4.574a19.492,19.492,0,0,1,4.138.553c.136.029.29.066.451.1a6.863,6.863,0,0,0,1.473.246ZM8.567,5.4h0Z" transform="translate(180.713 145.626)" fill="#232323"/>
      <path id="WBFuRMeLdSrZH7YwzY1ZA" d="M0,5.526C.361,4.99.882,4.252,1.345,3.673a.014.014,0,0,1,.014-.014C2.2,2.591,3.294,1.327,4.534,0A7.568,7.568,0,0,1,7.491,5.1a6.385,6.385,0,0,1-2.8,5.408A25.129,25.129,0,0,1,0,5.526Z" transform="translate(179.544 170.326)" fill="#232323"/>
      <path id="XV3aepxDagrZ6Udd3fiEU" d="M7.865,10.812c11.338-.8,32.15,1.438,35.722-5.217C46.693-.186,25.514-3.993,0,7.16c-.014,0,5.535,3.821,7.864,3.652Z" transform="translate(194.236 56.555)" fill="#232323"/>
      <path id="a1vYv2e0AfBi8yTh2mmW" d="M29.775,0c-1.977.113-3.84.212-5.605.324-.311.014-.621.028-.932.056-.113,0-.212.014-.325.014-.762.042-1.5.085-2.217.127-8.669.508-13.766.832-13.766.832S-2.05,4.625.435,23.209c0,0,8.486.578,17.776,1.551,2.019.212,4.066.451,6.085.705Z" transform="translate(22.477 2.704)" fill="#fff"/>
      <path id="nyhUf1kXeX5kX6qLjypkI" d="M20.7,0C12.027.508,6.93.832,6.93.832S-2.05,4.1.435,22.687c0,0,8.486.578,17.776,1.551Z" transform="translate(22.477 3.226)" fill="#b7d4fe"/>
      <path id="F4WVLJ2TT18FTCBrnnP-h" d="M3.939,0,1.412,23.547,0,23.42,2.5.085Z" transform="translate(34.899 3.48)" fill="#fff"/>
      <path id="c2UeqN-ZhZIpAHu2Myn95" d="M30.115,0a.35.35,0,0,1,.342.423L24.978,25.888a.35.35,0,0,1-.385.273c-2.137-.269-4.182-.505-6.078-.7C9.337,24.5.836,23.913.751,23.907a.35.35,0,0,1-.323-.3C-.288,18.25-.459,10.758,2.793,5.479a9.673,9.673,0,0,1,4.357-4.1.35.35,0,0,1,.1-.02c.051,0,5.2-.33,13.768-.832C21.736.48,22.471.438,23.234.4c.054,0,.107,0,.158-.007s.111-.007.169-.008c.314-.028.629-.042.933-.056C25.752.244,27.057.171,28.438.094L30.095,0ZM24.362,25.428,29.677.725l-1.2.067c-1.38.077-2.683.15-3.945.231-.308.014-.619.028-.923.056-.058.005-.115,0-.171.008s-.115.007-.175.008c-.759.042-1.49.084-2.207.126-8.09.474-13.128.791-13.709.828A9.422,9.422,0,0,0,3.355,5.9c-1.7,2.789-3.462,8.053-2.27,17.33,1.559.11,9.259.669,17.5,1.532,1.807.189,3.748.413,5.775.666Z" transform="translate(22.137 2.355)" fill="#232323"/>
      <path id="mvp4nW0StLw7p-ISVjSn" d="M174.642,69.261c11.31-22.039,15.348-36.7,3.375-54.187S142.464-.718,134.416,2.1c-30.215-2.4-50.83,10.152-64.1,7.755S36.71-1.846,5.464.326c0,0-4.193,15.736-5.464,25.465l48.712,5.781,7.766,6.345s-15.531,2.4-24.144,12.972c0,0,27.392,44.133,51.112,42.018,23.142-2.059,57.889-30.879,57.889-30.879Z" transform="translate(46.787 2.379)" fill="#fff"/>
      <path id="InDkhGc2eCOFPVlsCIRq" d="M15.105,0C33.824,0,48.232,3.976,59.16,6.991c4.4,1.214,8.2,2.262,11.567,2.871,5.653,1.021,12.564-.682,21.314-2.839C101.653,4.654,113.254,1.8,127.027,1.8c2.493,0,5.056.094,7.693.3C139.139.568,147.143-.367,155.152.978c7.086,1.19,16.915,4.627,23.5,14.247,5.814,8.49,8.071,16.631,7.1,25.621-1.024,9.51-5.63,19.521-10.455,28.924a.35.35,0,0,1-.385.182l-33.142-7.2a237.462,237.462,0,0,1-20.169,14.584A154.523,154.523,0,0,1,102.749,87.88c-7.238,3.325-13.6,5.251-18.923,5.724-5.49.49-11.619-1.438-18.215-5.728a88.248,88.248,0,0,1-16.526-14.6,170.3,170.3,0,0,1-16.7-21.853.349.349,0,0,1,.026-.405c4.5-5.522,10.882-8.789,15.447-10.557a50.555,50.555,0,0,1,8.162-2.4l-7.1-5.8L.308,26.486A.349.349,0,0,1,0,26.094C1.262,16.453,5.434.742,5.476.584A.35.35,0,0,1,5.79.325C9.007.1,12.112,0,15.105,0Zm59.26,10.865A21.147,21.147,0,0,1,70.6,10.55c-3.4-.614-7.213-1.666-11.628-2.885C46.393,4.194,29.179-.556,6.088,1.006,5.563,3,1.959,16.877.743,25.833L49.1,31.573a.35.35,0,0,1,.18.076l7.766,6.345a.35.35,0,0,1-.168.616A47.254,47.254,0,0,0,48.1,41.118C43.669,42.834,37.5,45.983,33.113,51.264a170.4,170.4,0,0,0,16.5,21.547A87.54,87.54,0,0,0,66,87.292c6.46,4.2,12.438,6.091,17.768,5.615,5.239-.466,11.528-2.371,18.693-5.663A153.833,153.833,0,0,0,121.228,76.75a234.783,234.783,0,0,0,20.233-14.643.35.35,0,0,1,.3-.073L174.8,69.211c6.472-12.641,9.447-20.893,10.259-28.44.949-8.815-1.27-16.806-6.985-25.151C171.629,6.2,161.988,2.835,155.036,1.667c-7.929-1.331-15.836-.4-20.155,1.113a.35.35,0,0,1-.143.019c-17.123-1.358-31.211,2.113-42.531,4.9-7,1.725-12.836,3.163-17.843,3.163Z" transform="translate(46.438 2.03)" fill="#232323"/>
      <path id="QsGKxuTaAiNpqpzf06zk" d="M4.6,54.229c-2.118-1.607-4.6-6.2-4.6-14.4V0C8.288,1.128,18.172.705,29.481.395c-.593,5.527-3.982,7.5-4.688,12.436-.946,6.655.438,6.416-2.923,17.456a47.635,47.635,0,0,1-3.53,9.447C12.891,50.549,5.422,53.891,4.674,54.2a.052.052,0,0,1-.042.014l-.028.014Z" transform="translate(0.35 3.645)" fill="#fff"/>
      <path id="t1tUARyMYYpSv5U5L5zGz" d="M4.6,54.229c-2.118-1.607-4.6-6.2-4.6-14.4V0C8.288,1.128,18.172.705,29.481.395c-.593,5.527-3.982,7.5-4.688,12.436-.946,6.655.438,6.416-2.923,17.456a47.635,47.635,0,0,1-3.53,9.447C12.891,50.549,5.422,53.891,4.674,54.2a.052.052,0,0,1-.042.014l-.028.014Z" transform="translate(0.35 3.645)" fill="#fff"/>
      <path id="pcax2gW3jVI7XuaRfTZI" d="M.35,0A.333.333,0,0,1,.4,0c7.491,1.02,16.215.769,26.317.48L29.821.395a.35.35,0,0,1,.357.387,16.6,16.6,0,0,1-2.492,6.837,15.263,15.263,0,0,0-2.2,5.611,44.771,44.771,0,0,0-.423,4.869c-.12,2.749-.224,5.122-2.512,12.639-.009.029-.025.093-.05.189A48.684,48.684,0,0,1,19,40.24C13.569,51.024,6.19,54.437,5.193,54.858a.383.383,0,0,1-.109.044.35.35,0,0,1-.343-.045C2.449,53.118,0,48.349,0,40.182V.35A.35.35,0,0,1,.35,0ZM13.786,1.437A102.854,102.854,0,0,1,.7.749V40.182a27.477,27.477,0,0,0,1.485,9.545,10.292,10.292,0,0,0,2.824,4.449c1.241-.543,8.181-3.954,13.37-14.25a47.972,47.972,0,0,0,3.449-9.174c.029-.112.048-.186.058-.218,2.262-7.431,2.364-9.764,2.482-12.465a45.953,45.953,0,0,1,.429-4.938,16.042,16.042,0,0,1,2.28-5.855,16.394,16.394,0,0,0,2.358-6.171l-2.7.077c-4.594.132-8.9.255-12.948.255Z" transform="translate(0 3.295)" fill="#232323"/>
      <path id="euMElK1beuNuudBPego7" d="M.357,0H.387a.35.35,0,0,1,.32.377,6.017,6.017,0,0,0,.208,1.8A12.022,12.022,0,0,0,2.808,6.165c.506.716.951,1.295,1.344,1.806,1.507,1.959,2.263,2.943,2.755,6.754a.35.35,0,0,1-.694.089C5.745,11.19,5.072,10.315,3.6,8.4c-.4-.516-.846-1.1-1.362-1.829C-.15,3.162-.014.6.009.321A.35.35,0,0,1,.357,0Z" transform="translate(14.758 4.047)" fill="#232323"/>
      <path id="Mtf2J6FGAgzssrRRlD2_z" d="M2.336,8.52C1.07,8.52,0,6.563,0,4.26S1.07,0,2.336,0,4.673,1.957,4.673,4.26,3.6,8.52,2.336,8.52Z" transform="translate(2.8 7.817)" fill="#408dfb"/>
      <path id="Xr9BWf06ujPozPUgG-eX-" d="M1.059,0A1.057,1.057,0,0,0,0,1.058a1.069,1.069,0,0,0,.635.973,10.547,10.547,0,0,1,2.6,1.819A14.57,14.57,0,0,1,7.3,10.279a1.058,1.058,0,0,0,2.019-.635A15.708,15.708,0,0,0,1.483.1.854.854,0,0,0,1.059,0Z" transform="translate(13.678 26.007)" fill="#408dfb"/>
      <path id="m8nzjWPtBcCXHIhC1_k2d" d="M1.059,0A1.066,1.066,0,0,0,0,1.058,1.072,1.072,0,0,0,.579,2a13.845,13.845,0,0,1,6.41,8.6,1.064,1.064,0,0,0,2.076-.465v-.014A15.726,15.726,0,0,0,1.553.113,1.205,1.205,0,0,0,1.059,0Z" transform="translate(11.815 30.844)" fill="#408dfb"/>
      <path id="MlPaKsiGxGV1c4S1mMQVV" d="M1.059,0A1.057,1.057,0,0,0,0,1.058a1.037,1.037,0,0,0,.565.931A12.292,12.292,0,0,1,6,9.729a1.055,1.055,0,0,0,2.061-.451A14.247,14.247,0,0,0,1.567.127,1.682,1.682,0,0,0,1.059,0Z" transform="translate(10.332 36.427)" fill="#408dfb"/>
      <path id="gP9eJHlEYhB4V2uja_T98" d="M0,28.074A85.32,85.32,0,0,1,27.956,13.551c5.93-1.692,20.755-5.076,18.214-10.857C43.389-3.609,23.156-.267,0,28.074Z" transform="translate(171.038 63.969)" fill="#232323"/>
      <path id="qN9uEQmi3uqtt0R7oW5BK" d="M118.948,26.147a65.873,65.873,0,0,0-2.118-6.5c-.071-.169-.141-.353-.212-.522-18.849-46.5-70.314,5.443-81.68,13.141-9.276,6.289-15.814,5.076-22.732,7.332s-5.224,5.5-5.224,5.5c-2.118,3.666-.706,4.794-.706,4.794-2.683,3.384-1.694,6.063-1.694,6.063A32.446,32.446,0,0,0,1.9,59.339c-5.351,8.009,1.977,2.4,5.224.987-4.236,5.076.367,2.411,8.613,1.128,8.189-1.269,15.828-3.892,21.461-5.64C55.411,50.174,81.934,37.18,81.934,37.18s.644,2.033,1.209,4.007Z" transform="translate(87.812 49.215)" fill="#fff"/>
      <path id="GKwwDyx7jnnpexUlYrNL6" d="M92.908,0a24.689,24.689,0,0,1,6.138.744,22.312,22.312,0,0,1,10.181,5.828,37.386,37.386,0,0,1,8.068,12.774c.035.083.071.173.107.263s.069.173.1.256a66.5,66.5,0,0,1,2.133,6.544.349.349,0,0,1-.2.413L83.631,41.861a.35.35,0,0,1-.472-.226c-.412-1.441-.871-2.927-1.085-3.611C78.811,39.606,54.528,51.275,37.653,56.5c-.765.237-1.567.491-2.4.755a128.5,128.5,0,0,1-19.108,4.9c-2.3.358-4.323.826-5.946,1.2-2.757.638-4.141.958-4.568.263-.244-.4-.086-.948.609-1.924-.393.215-.809.45-1.235.692C2.435,63.836.831,64.693.2,64.016c-.381-.41-.432-1.242,1.758-4.519a33.088,33.088,0,0,1,2.583-3.279c-.18-.7-.544-3.068,1.631-5.958-.474-.684-.687-2.238.772-4.835a2.844,2.844,0,0,1,.085-2.019c.63-1.546,2.453-2.82,5.418-3.787a45.026,45.026,0,0,1,6.8-1.492c4.746-.787,9.654-1.6,15.845-5.8,1.555-1.053,3.86-2.936,6.778-5.32C53.8,17.264,74.939,0,92.908,0Zm25.975,26.3c-.575-2.093-1.256-4.168-2.026-6.171-.032-.077-.068-.166-.1-.256s-.069-.174-.1-.257a36.706,36.706,0,0,0-7.911-12.541,21.622,21.622,0,0,0-9.865-5.65,29.257,29.257,0,0,0-14.827.546,67.259,67.259,0,0,0-15.5,6.683c-10.189,5.8-19.842,13.683-26.23,18.9-2.932,2.395-5.247,4.286-6.828,5.357-6.318,4.283-11.3,5.109-16.123,5.908a44.494,44.494,0,0,0-6.7,1.467c-3.438,1.121-4.61,2.46-4.987,3.386a2.086,2.086,0,0,0-.035,1.619.349.349,0,0,1-.007.337c-1.907,3.3-.8,4.341-.784,4.351a.342.342,0,0,1,.049.485c-2.515,3.172-1.677,5.624-1.64,5.726a.352.352,0,0,1-.07.355A32.292,32.292,0,0,0,2.539,59.89C.477,62.976.686,63.493.716,63.542c0,0,.22.131,1.329-.373.763-.347,1.7-.879,2.612-1.394.99-.561,1.925-1.09,2.679-1.418a.35.35,0,0,1,.408.545c-1.534,1.839-1.55,2.264-1.519,2.351.248.244,2.142-.194,3.813-.581,1.634-.378,3.667-.849,6-1.211a127.952,127.952,0,0,0,19-4.872c.837-.265,1.64-.519,2.407-.756,17.979-5.567,44.422-18.484,44.687-18.613a.349.349,0,0,1,.487.208c.006.019.571,1.805,1.1,3.638Z" transform="translate(87.46 48.863)" fill="#232323"/>
      <path id="rfC19g1Xi0yEgJgkeuVN6" d="M7.473,0A.349.349,0,0,1,7.7.615,36.646,36.646,0,0,1,3.683,3.364C2.661,3.982,1.593,4.577.509,5.132A.35.35,0,1,1,.19,4.51c1.069-.548,2.122-1.134,3.131-1.744A36.069,36.069,0,0,0,7.248.081.349.349,0,0,1,7.473,0Z" transform="translate(169.122 81.725)" fill="#232323"/>
      <path id="Yzx3u0Fee-PluunAyp9KH" d="M15.895,68.1c4.914,6.162,11.437,11.421,18.92,2.256l2.4-.564C49.781,46.531,55.994,15.933,67.289,0,65.03,3.243,52.746,4.23,46.675,4.512c1.271,4.794-6.495,6.373-19.485,10.575A117.268,117.268,0,0,0,0,28.051S8.694,59.08,15.895,68.1Z" transform="translate(170.533 62.151)" fill="#408dfb"/>
      <g id="Group_277338" data-name="Group 277338" transform="translate(170.533 62.151)" clip-path="url(#clip-path)">
        <path id="GJwT1ySnhjEV_XejL_sQ" d="M11.845,0a.35.35,0,0,1,.332.459C9.651,8.126,8.989,17.481,8.348,26.527q-.125,1.765-.253,3.517a186.691,186.691,0,0,1-2.17,19.23C4.707,55.951,2.983,61.176.653,65.25A.35.35,0,1,1,.046,64.9c5.061-8.85,6.407-22.1,7.351-34.91q.13-1.75.253-3.515C8.294,17.388,8.96,7.99,11.513.24A.35.35,0,0,1,11.845,0Z" transform="translate(34.454 6.008)" fill="#fff"/>
      </g>
      <path id="rNQS-vi_1GQ-xM6rLjki9" d="M0,33.663C8.754,23.511,20.191,21.537,24.144,20.691S58.726,12.284,49.3,2.333C40.385-7.089,11.154,13.782,0,33.663Z" transform="translate(79.121 19.604)" fill="#232323"/>
      <path id="tEREqsV1Kx9TDU42eoc3R" d="M43.523,0a8.4,8.4,0,0,1,6.385,2.443c1.678,1.773,2.241,3.6,1.672,5.434-1,3.209-5.445,6.356-13.223,9.354a104.689,104.689,0,0,1-13.79,4.153l-.613.129c-4.512.942-15.078,3.148-23.34,12.73a.35.35,0,0,1-.57-.4c4.219-7.52,11.282-15.6,19.376-22.178C27.538,5.073,35.631.866,41.626.123A15.454,15.454,0,0,1,43.523,0ZM2.324,31.41c7.995-7.765,17.3-9.708,21.488-10.581l.609-.128a103.885,103.885,0,0,0,13.685-4.121c5.2-2.005,11.649-5.179,12.807-8.909.5-1.6,0-3.148-1.512-4.746C47.68,1.106,45.093.4,41.712.817,30.1,2.256,11.753,16.7,2.324,31.41Z" transform="translate(78.772 19.254)" fill="#232323"/>
      <path id="Xk7qu14HPdi7V9h5Q8rZx" d="M37.557,14.356c-.8-.62-3.036-2.594-5.365-4.7-1.37-1.227-2.753-2.5-3.925-3.553-3.29-3-6.156-5.64-6.156-5.64A18.945,18.945,0,0,0,4.914,5.05C2.174,7.518,0,9.689,0,9.689s4.914,6.26,9.559,12.422c.155.212.325.423.48.635,1.186,1.579,2.344,3.13,3.375,4.554,8.754-9.7,19.344-11.816,24.144-12.944Z" transform="translate(65.707 25.939)" fill="#fff"/>
      <path id="Mm0SD55pfmHZEi8jofg-f" d="M28.267,6.108c-3.29-3-6.156-5.64-6.156-5.64A18.945,18.945,0,0,0,4.914,5.05C2.174,7.518,0,9.689,0,9.689s4.914,6.26,9.559,12.422Z" transform="translate(65.694 25.939)" fill="#b7d4fe"/>
      <path id="zglReN3-00PmpCZgoUs8" d="M19.2.959.861,16.272C.579,15.891.282,15.524,0,15.144L18.157,0C18.482.3,18.835.62,19.2.959Z" transform="translate(71.836 28.423)" fill="#fff"/>
      <path id="F928G4euZLMGhNC6z2p" d="M18.081,0a21.8,21.8,0,0,1,4.451.473A.348.348,0,0,1,22.7.558c.029.026,2.9,2.671,6.155,5.639.459.414.952.862,1.463,1.327.8.727,1.628,1.48,2.459,2.224,2.749,2.479,4.647,4.141,5.346,4.679a.35.35,0,0,1-.134.617l-.643.15a53.984,53.984,0,0,0-10.438,3.331,38.573,38.573,0,0,0-12.883,9.356.35.35,0,0,1-.543-.029c-1.068-1.475-2.251-3.058-3.371-4.549-.078-.107-.158-.21-.238-.314s-.165-.216-.245-.323C5.039,16.581.124,10.315.075,10.253A.35.35,0,0,1,.1,9.789c.022-.022,2.212-2.206,4.927-4.651A19.268,19.268,0,0,1,18.081,0ZM22.3,1.138A18.653,18.653,0,0,0,5.5,5.657c-2.2,1.986-4.061,3.8-4.68,4.409.954,1.218,5.291,6.77,9.371,12.182.079.107.159.211.238.315s.165.215.244.323c1.032,1.374,2.121,2.83,3.124,4.209,8.369-9.074,18.433-11.433,23.338-12.57-1.236-1.034-3.471-3.036-4.825-4.257-.832-.745-1.661-1.5-2.462-2.227-.511-.465-1-.912-1.463-1.327C25.413,4,22.759,1.564,22.3,1.138Z" transform="translate(65.358 25.591)" fill="#232323"/>
      <path id="glEaw5ivLd-h-0dLrocUG" d="M.021,40.947c-.24-2.707,1.525-7.755,7.709-13.409L37.9,0c5.1,7.656,10.6,14.988,18.228,25.987-5.365,3.948-10.222,1.734-13.837,4.371-3.5,2.552-7.907,4.653-12.227,7.092a52.569,52.569,0,0,1-9.6,3.863C8.521,44.669.84,41.342.078,40.989a.052.052,0,0,0-.042-.014Z" transform="translate(31.73 0.35)" fill="#fff"/>
      <path id="tR1vM8UpeYnoIBVwul0r7" d="M38.253,0,38.3,0a.35.35,0,0,1,.248.153c2.871,4.312,5.856,8.5,9.312,13.347,2.618,3.673,5.586,7.835,8.913,12.634a.35.35,0,0,1-.08.481c-3.029,2.229-5.907,2.544-8.445,2.821-2.062.226-3.843.42-5.393,1.551a74.7,74.7,0,0,1-8.505,5.058c-1.231.663-2.5,1.349-3.756,2.056A52.429,52.429,0,0,1,20.912,42C8.934,45.365,1.186,42.073.291,41.661a.351.351,0,0,1-.218-.18l-.014-.028a.351.351,0,0,1-.036-.125c-.26-2.928,1.659-8.064,7.822-13.7L38.018.091A.349.349,0,0,1,38.253,0ZM56,26.253c-3.245-4.676-6.146-8.745-8.711-12.344C43.917,9.183,41,5.084,38.188.882L8.316,28.145a28.223,28.223,0,0,0-6.188,7.711A10.541,10.541,0,0,0,.706,41.081c1.306.571,8.709,3.422,20.015.246a52.6,52.6,0,0,0,9.52-3.829c1.262-.713,2.538-1.4,3.773-2.065a74.216,74.216,0,0,0,8.425-5.008c1.7-1.24,3.657-1.454,5.729-1.681A15.413,15.413,0,0,0,56,26.253ZM.386,41.674h0Z" transform="translate(31.38 0)" fill="#232323"/>
      <path id="kfGCtjo3f4F_hf-bilNzD" d="M1.63,6.771c-2.421,0-2.006-3.029.327-5.14C3.7.056,5.885-.479,6.748.472S6.9,3.562,5.156,5.137A5.743,5.743,0,0,1,1.63,6.771Z" transform="translate(62.977 6.427)" fill="#408dfb"/>
      <path id="UaQFOA-3QMwnBThpnN6pK" d="M2.783,0A1.066,1.066,0,0,0,1.724,1.058.9.9,0,0,0,1.78,1.4,14.225,14.225,0,0,1,.142,12.14a1.044,1.044,0,0,0,.4,1.438,1.047,1.047,0,0,0,1.44-.395A16.126,16.126,0,0,0,3.785.705a1.053,1.053,0,0,0-1-.705Z" transform="translate(57.037 27.295)" fill="#408dfb"/>
      <path id="H8CiiKP1Y8M6SDcEJG_2d" d="M3.291,0A1.066,1.066,0,0,0,2.232,1.058a.908.908,0,0,0,.042.282,14.146,14.146,0,0,1-2.09,10.8,1.055,1.055,0,0,0,1.737,1.2A16.03,16.03,0,0,0,4.307.776,1.046,1.046,0,0,0,3.291,0Z" transform="translate(51.573 29.227)" fill="#408dfb"/>
      <path id="MZuAYaO349zMIsV8zDyI3" d="M3.33,0A1.066,1.066,0,0,0,2.271,1.058a1.551,1.551,0,0,0,.028.254A12.562,12.562,0,0,1,.2,10.773,1.063,1.063,0,0,0,1.932,12,14.5,14.5,0,0,0,4.361.8,1.045,1.045,0,0,0,3.33,0Z" transform="translate(46.282 31.962)" fill="#408dfb"/>
      <g id="vBPon6PmdMLxHNY8i7xM2" transform="translate(3.313 3.956)">
        <path id="R0vZQl3U2gHZou1UDmnQ" d="M.35,0A.348.348,0,0,1,.563.073,6.108,6.108,0,0,0,3.782,1.409,4.632,4.632,0,0,0,6.308.941a.35.35,0,0,1,.369.594,5.2,5.2,0,0,1-2.953.571A6.793,6.793,0,0,1,.136.627.35.35,0,0,1,.35,0Z" transform="translate(190.192 151.759)" fill="#232323"/>
        <path id="p9gmIr61QbjD0eWZyfG3t" d="M.041.931A1.827,1.827,0,0,1,.6.393a2.471,2.471,0,0,1,.7-.3A2.727,2.727,0,0,1,2.814.123,2.753,2.753,0,0,1,3.5.471a2.542,2.542,0,0,1,.554.537,2.153,2.153,0,0,1,.454,1.436A.261.261,0,0,1,4,2.481l0-.012a2.124,2.124,0,0,0-.517-.983,2.152,2.152,0,0,0-.424-.352A2.114,2.114,0,0,0,2.558.9a2.413,2.413,0,0,0-1.1-.073,2.048,2.048,0,0,0-1.016.438l-.01.008A.261.261,0,0,1,.041.931Z" transform="translate(171.189 155.559)" fill="#232323"/>
        <path id="djWbJmWtZJVeMoSx_YHpH" d="M9.217,0A.35.35,0,0,1,9.24.7,20.688,20.688,0,0,0,3.66,2.035,33.787,33.787,0,0,0,.5,3.4.35.35,0,0,1,.2,2.771,34.513,34.513,0,0,1,3.416,1.379,21.383,21.383,0,0,1,9.193,0h.024Z" transform="translate(91.258 102.514)" fill="#232323"/>
        <path id="prdwKLpoCj0CAkaWqev" d="M7.065,0a.35.35,0,0,1,.153.664A33.954,33.954,0,0,0,.6,5.068a.35.35,0,1,1-.494-.5A34.34,34.34,0,0,1,6.913.035.35.35,0,0,1,7.065,0Z" transform="translate(88.591 96.547)" fill="#232323"/>
        <path id="PYFV3E1Q_7ii0ap81cDxc" d="M4.99,0a.35.35,0,0,1,.158.662A18.586,18.586,0,0,0,.6,3.774a.35.35,0,0,1-.5-.485A19.286,19.286,0,0,1,4.832.038.349.349,0,0,1,4.99,0Z" transform="translate(90.409 91.639)" fill="#232323"/>
        <path id="NKATeRjlJbcTh5WwjDR6M" d="M4.54,0a.35.35,0,0,1,.12.678A12.627,12.627,0,0,0,.582,2.99a.35.35,0,0,1-.464-.523A13.317,13.317,0,0,1,4.42.021.347.347,0,0,1,4.54,0Z" transform="translate(91.131 87.628)" fill="#232323"/>
        <path id="geoQN9XwR7cxSIhnq4U_h" d="M5.488,0a.348.348,0,0,1,.255.111A10.694,10.694,0,0,1,8.537,8.844,9.47,9.47,0,0,1,6.163,13.95c-2.49,3.12-2.2,4.822-1.872,6.793a9.823,9.823,0,0,1-.593,6.21,34.452,34.452,0,0,0-3,13.1A20.607,20.607,0,0,0,4.424,52.32a.35.35,0,1,1-.571.4A21.292,21.292,0,0,1,0,40.049,35.142,35.142,0,0,1,3.054,26.681,9.112,9.112,0,0,0,3.6,20.858c-.344-2.047-.669-3.981,2.015-7.344A8.764,8.764,0,0,0,7.844,8.751,9.995,9.995,0,0,0,5.233.589.349.349,0,0,1,5.488,0Z" transform="translate(0)" fill="#232323"/>
        <path id="CFZ80iboTCLnQoyCOKwUD" d="M8.694,0A.35.35,0,0,1,8.86.657C8.778.7,5.168,2.765,4.563,6.5,3.874,10.742,3.517,12.229.6,15.256a.35.35,0,0,1-.5-.485c2.771-2.877,3.113-4.305,3.775-8.386C4.541,2.268,8.5.057,8.538.037A.35.35,0,0,1,8.694,0Z" transform="translate(67.325 10.553)" fill="#232323"/>
        <path id="b1XDY8Ry8f_Yzw_CO0pd4" d="M40.675,0a.35.35,0,0,1,.35.35c0,.171-.052,4.221-4.6,7.434a9.492,9.492,0,0,1-5.489,1.741c-4.133.3-5.21,1.684-6.456,3.287A9.959,9.959,0,0,1,19.4,16.64C8.312,20.579,2.367,26.325.692,34.724a.35.35,0,1,1-.686-.137A20.679,20.679,0,0,1,6.918,22.7a37.084,37.084,0,0,1,12.248-6.715,9.248,9.248,0,0,0,4.764-3.6c1.293-1.664,2.514-3.235,6.948-3.555h.012a8.9,8.9,0,0,0,5.135-1.614c4.25-3.007,4.3-6.707,4.3-6.863a.35.35,0,0,1,.35-.35Z" transform="translate(30.869 3.63)" fill="#232323"/>
        <path id="VVwnnbgMoPLMzSHaEXEsP" d="M50.239,0a.35.35,0,0,1,.116.679c-8.671,3.057-19.022,9.782-29.147,18.937C12.415,27.559,4.539,36.729.653,43.549A.35.35,0,0,1,.046,43.2c3.92-6.88,11.849-16.116,20.693-24.1C30.931,9.883,41.366,3.107,50.122.02A.349.349,0,0,1,50.239,0Z" transform="translate(127.651 0.175)" fill="#232323"/>
        <path id="f11iv1wKFTDLoT9A0tZB7" d="M.438,0h.02A.35.35,0,0,1,.787.369C.263,9.692,2.075,30.564,6,40.779a.35.35,0,1,1-.653.251C1.39,30.73-.439,9.712.089.33A.35.35,0,0,1,.438,0Z" transform="translate(126.449 21.788)" fill="#232323"/>
        <path id="TkDtp0a3y3bGKiZm-DA" d="M.35,0A.353.353,0,0,1,.444.013C4.826,1.24,8.5,2.171,11.67,2.861c2.967.646,5.648,1.117,8.692,1.527a.35.35,0,0,1-.093.693c-3.063-.413-5.76-.887-8.747-1.537C8.336,2.852,4.651,1.917.255.686A.35.35,0,0,1,.35,0Z" transform="translate(113.34 7.916)" fill="#232323"/>
      </g>
    </g>
  </g>
</svg>
