<svg version="1.2" xmlns="http://www.w3.org/2000/svg" viewBox="0 0 18 18" width="18" height="18"><style>.a{fill:#fff}</style><path class="a" d="m8.4 0q0 0-0.1 0-0.2 0.1-0.4 0.1-0.1 0-0.3 0-0.2 0.1-0.3 0.1-0.2 0-0.3 0l-0.2 0.1c-0.1 0-0.2 0-0.3 0.1-0.1 0-0.5 0.1-0.6 0.2q0 0-0.1 0c-0.1 0-0.4 0.2-0.5 0.2-0.1 0.1-0.6 0.3-0.7 0.3v0.1c0 0-0.1 0-0.2 0.1q-0.4 0.2-0.7 0.5-0.3 0.2-0.6 0.5-0.4 0.2-0.6 0.5-0.3 0.3-0.6 0.7c-0.1 0.1-0.1 0.2-0.2 0.2q0 0.1 0 0.1c-0.1 0.1-0.5 0.7-0.6 0.8q0 0 0 0.1c0 0-0.3 0.5-0.3 0.6-0.1 0.1-0.2 0.5-0.2 0.6q-0.1 0-0.1 0c0 0.1-0.1 0.6-0.2 0.7q0 0.1-0.1 0.3 0 0 0 0.1 0 0.2-0.1 0.3 0 0.2 0 0.4 0 0.1-0.1 0.3 0 0.2 0 0.3c0 0.2 0 1.2 0 1.4q0.1 0.3 0.1 0.7c0 0.1 0 0.2 0 0.2q0.1 0.1 0.1 0.2 0 0 0 0.1c0 0.2 0.1 0.4 0.1 0.4q0 0.1 0.1 0.1c0 0.1 0.1 0.5 0.1 0.6l0.1 0.1v0.2q0 0 0.1 0 0 0.1 0 0.1 0 0.1 0.1 0.1 0 0 0 0.1 0.1 0 0.2 0.1 0.1 0 0.2 0 0.1 0 0.2-0.1 0.1 0 0.2-0.1 0-0.1 0-0.1 0.1-0.1 0.1-0.2 0-0.1 0-0.2 0 0-0.1-0.1 0-0.1 0-0.2c-0.1 0-0.1-0.1-0.1-0.2 0 0-0.1-0.1-0.1-0.2q0 0 0 0 0 0 0 0 0 0 0 0 0 0 0 0 0 0 0 0 0 0 0-0.1 0 0 0 0 0 0 0 0 0-0.1-0.1-0.1c0-0.3 0-0.3-0.1-0.6 0-0.1 0-0.2-0.1-0.4q0 0 0 0 0-0.1 0-0.1 0 0 0 0 0 0 0-0.1 0 0 0 0 0 0 0 0 0 0 0 0 0 0 0-0.1 0-0.1 0-0.2 0-0.1 0-0.2-0.1-0.1-0.1-0.2 0-0.1 0-0.2c0-0.2 0.1-0.7 0.1-0.9 0-0.3 0.1-0.5 0.1-0.7v-0.2q0.1-0.2 0.1-0.3 0.1-0.2 0.2-0.4 0-0.2 0.1-0.4 0.1-0.1 0.1-0.3 0.1-0.1 0.1-0.3 0.1-0.1 0.2-0.2 0-0.1 0.1-0.3 0.1-0.1 0.2-0.2c0 0 0-0.1 0.1-0.2q0-0.1 0.1-0.2 0.1-0.1 0.2-0.2 0-0.1 0.1-0.2 0.1-0.1 0.2-0.2 0.1-0.1 0.2-0.3 0.2-0.1 0.3-0.2 0.1-0.1 0.3-0.3 0.1-0.1 0.2-0.2c0.3-0.2 0.4-0.3 0.6-0.4q0.1-0.1 0.3-0.2 0.1-0.1 0.3-0.1 0.1-0.1 0.3-0.2 0.1-0.1 0.3-0.2c0.1 0 0.5-0.2 0.6-0.2l0.2-0.1c0 0 0.1 0 0.2 0q0.3-0.1 0.4-0.1l0.2-0.1q0.3 0 0.7-0.1 0.3 0 0.6 0 0.4 0 0.7 0 0.4 0 0.7 0.1 0 0 0 0 0 0 0.1 0 0 0 0 0 0 0 0 0 0 0 0.1 0 0 0 0 0 0 0 0 0 0 0 0 0h0.2c0.2 0.1 0.6 0.2 0.7 0.2h0.1q0.1 0.1 0.1 0.1h0.2c0.1 0.1 0.4 0.2 0.6 0.3h0.1c0.1 0.1 0.4 0.2 0.5 0.3h0.1c0.1 0.1 0.2 0.1 0.3 0.2 0.3 0.2 0.3 0.2 0.2 0.2q0 0-0.1 0.1-0.1 0-0.1 0-0.1 0.1-0.1 0.1-0.1 0.1-0.1 0.1 0 0.1 0 0.1-0.1 0-0.1 0 0 0.1 0 0.1 0 0 0 0.1 0 0 0 0 0 0 0 0.1 0 0 0.1 0 0 0 0 0.1 0 0 0 0 0 0.1 0.1 0.1 0 0 0 0.1 0.1 0 0.1 0c0 0 0.4 0.2 0.9 0.3 0.4 0.2 0.8 0.3 0.8 0.3l0.3 0.1 0.3 0.1h0.2c0.1 0 0.2 0 0.2 0q0.1-0.1 0.1-0.1 0 0 0 0 0.1 0 0.1-0.1 0 0 0 0 0.1-0.1 0.1-0.1 0-0.1 0-0.1 0-0.1 0-0.2 0 0 0-0.1c0-0.1-0.8-2.2-0.8-2.3q0 0 0-0.1-0.1 0-0.1 0 0 0-0.1-0.1 0 0 0 0-0.1-0.1-0.2-0.1-0.2 0-0.3 0.1-0.1 0-0.1 0.1-0.1 0.1-0.2 0.2 0 0 0 0.1 0 0 0 0.1 0 0 0 0 0 0.1 0 0.1 0 0 0.1 0 0 0.1 0 0.1 0 0 0 0 0 0.1 0 0.1 0 0-0.1-0.1c-0.2-0.1-0.7-0.4-0.9-0.6h-0.1q-0.1-0.1-0.3-0.1-0.1-0.1-0.2-0.2-0.1 0-0.2-0.1-0.2 0-0.3-0.1l-0.2-0.1h-0.1-0.1c-0.1-0.1-0.2-0.1-0.4-0.2-0.4-0.1-0.4-0.1-0.4-0.1h-0.2c-0.1-0.1-0.2-0.1-0.4-0.1q-0.1 0-0.2-0.1-0.1 0-0.3 0-0.1 0-0.2 0-0.1 0-0.2-0.1-0.2 0-0.2 0-0.1 0-0.2 0-0.2 0-0.3 0-0.2 0-0.3 0-0.2 0-0.3 0z"/><path class="a" d="m7.8 3.2q-0.1 0.1-0.2 0.1 0 0-0.1 0.1 0 0 0 0.1-0.1 0.1-0.1 0.1 0 0.1 0 0.2 0 0 0 0.1 0 0 0 0.1 0 0.1 0 0.1 0 0.1 0 0.1 0 0.1 0 0.1 0 0.1 0 0.2 0 0 0 0.1 0 0-0.1 0 0 0 0 0 0 0 0 0 0 0-0.1 0 0 0 0 0.1-0.1 0-0.1 0-0.1 0-0.1 0-0.1 0.1-0.1 0.1-0.1 0-0.2 0.1-0.1 0-0.2 0.1-0.1 0.1-0.2 0.1-0.1 0.1-0.2 0.2c-0.1 0-0.2 0.1-0.2 0.1q0 0-0.1 0 0 0 0 0 0-0.1-0.1-0.1 0 0 0 0c-0.1-0.1-0.3-0.1-0.3-0.2h-0.1q0-0.1-0.1-0.1 0 0-0.1 0 0 0-0.1 0 0-0.1-0.1-0.1 0 0 0 0.1-0.1 0-0.1 0 0 0-0.1 0 0 0 0 0-0.1 0.1-0.1 0.1-0.1 0-0.1 0.1 0 0-0.1 0.1 0 0 0 0.1 0 0-0.1 0.1c0 0 0 0.1-0.1 0.2l-0.3 0.5c-0.1 0.2-0.2 0.3-0.2 0.3 0 0 0 0.1-0.1 0.2q-0.1 0.1-0.1 0.1 0 0 0 0.1 0 0 0 0 0 0 0 0 0 0 0 0-0.1 0.1-0.1 0.1 0 0.1 0 0.2 0 0.1 0 0.2 0 0.1 0 0.1c0.1 0.2 0.1 0.2 0.7 0.5 0.1 0.1 0.1 0.1 0.1 0.1q0 0 0 0 0 0 0.1 0 0 0 0 0 0 0 0 0c0 0.1 0 0.1 0 0.1 0 0.1 0 0.2 0 0.2q0 0.2-0.1 0.3 0 0.2 0 0.3 0 0.2 0 0.3 0.1 0.2 0.1 0.3c0 0.3 0 0.3 0 0.3q0 0 0 0 0 0 0 0 0 0-0.1 0 0 0 0 0c0 0-0.2 0.2-0.5 0.3q0 0 0 0.1-0.1 0-0.1 0 0 0 0 0-0.1 0-0.1 0.1 0 0-0.1 0.1 0 0 0 0.1 0 0 0 0.1 0 0.1 0 0.1 0 0.1 0 0.1 0 0 0 0.1 0 0 0 0 0.1 0.1 0.1 0.1 0 0.1 0 0.1 0 0 0.1 0.1c0.1 0.1 0.1 0.2 0.1 0.2l0.2 0.3c0.1 0.1 0.2 0.3 0.3 0.5 0 0.1 0.1 0.3 0.1 0.3q0 0 0 0 0.1 0 0.1 0 0 0 0 0 0 0 0 0 0 0.1 0 0.1 0.1 0.1 0.1 0.1 0 0.1 0.1 0.1 0 0.1 0.1 0.1 0 0 0 0 0.1 0.1 0.1 0.1 0 0 0.1 0 0 0 0 0 0.1 0 0.1 0 0.1 0 0.1-0.1 0.1 0 0.1 0 0.1 0 0.1 0 0-0.1 0.1-0.1c0 0 0.2-0.1 0.3-0.2q0 0 0 0 0.1 0 0.1 0 0 0 0 0 0.1-0.1 0.1-0.1c0 0 0.1 0.1 0.2 0.2 0.1 0 0.2 0.1 0.2 0.1q0.1 0.1 0.2 0.2 0.2 0 0.3 0.1 0.1 0.1 0.2 0.1 0.1 0.1 0.2 0.1 0.1 0 0.1 0 0 0 0 0 0 0 0 0.1 0.1 0 0.1 0 0 0 0 0.1 0 0 0 0.1 0 0 0 0.1 0 0 0 0.1c0 0.4 0 0.5 0.1 0.6q0 0.1 0 0.1 0 0 0.1 0.1 0 0 0.1 0 0 0.1 0.1 0.1 0.1 0 0.3 0 0.1 0 0.3 0 0.1 0 0.3 0 0.1 0 0.3 0 0.1 0 0.3 0 0.1 0 0.3 0 0.1 0 0.3 0 0.1 0 0.3 0 0 0 0.1-0.1 0.1 0 0.1-0.1 0.1 0 0.1-0.1 0 0 0-0.1c0 0 0.1-0.2 0.1-0.5 0-0.4 0-0.4 0-0.4q0-0.1 0.1-0.1 0.2-0.1 0.3-0.1 0.2-0.1 0.3-0.2 0.1 0 0.3-0.1 0.1-0.1 0.2-0.2c0.1-0.1 0.2-0.2 0.2-0.2 0.1 0 0.1 0 0.5 0.3q0 0 0 0h0.1q0 0.1 0.1 0.1 0 0 0.1 0 0 0.1 0.1 0.1 0.1 0 0.1 0 0 0 0 0 0.1 0 0.1 0 0 0 0 0 0 0 0.1 0 0-0.1 0.1-0.1 0 0 0.1-0.1 0 0 0 0 0.1-0.1 0.1-0.1l0.1-0.2c0 0 0.1-0.2 0.2-0.3 0.3-0.6 0.4-0.7 0.4-0.8 0 0 0.1-0.1 0.1-0.2q0.1-0.1 0.1-0.1 0 0 0 0 0 0 0 0 0-0.1 0-0.1 0 0 0 0 0.1 0 0.1 0 0-0.1 0-0.1 0-0.1 0.1-0.1 0 0 0-0.1 0 0 0-0.1 0-0.1 0-0.1 0-0.1-0.1-0.1 0-0.1 0-0.1-0.1 0-0.1-0.1 0 0-0.1 0 0 0 0-0.1 0 0-0.1 0 0 0-0.1-0.1l-0.3-0.1-0.2-0.1v-0.1q0 0 0 0 0.1-0.1 0.1-0.1 0 0 0 0 0 0 0-0.1 0 0 0-0.1 0-0.1 0-0.2 0 0 0-0.1 0-0.1 0-0.2 0-0.1 0-0.1 0-0.1 0-0.2 0-0.1 0-0.2 0 0 0-0.1 0 0 0-0.1 0 0 0 0 0 0-0.1 0 0 0 0-0.1v-0.1h0.2l0.3-0.2q0.1-0.1 0.1-0.1 0.1 0 0.1 0 0 0 0-0.1 0.1 0 0.1 0 0 0 0.1-0.1 0 0 0-0.1 0.1 0 0.1-0.1 0 0 0-0.1 0 0 0-0.1 0 0 0-0.1-0.1 0-0.1-0.1 0 0 0 0 0-0.1-0.1-0.1 0 0 0 0 0 0 0 0 0 0 0-0.1 0 0 0 0 0 0-0.1-0.1c0-0.1-0.1-0.2-0.1-0.2 0-0.1-0.1-0.2-0.4-0.8l-0.2-0.3-0.1-0.1q0-0.1-0.1-0.1 0-0.1 0-0.1-0.1-0.1-0.1-0.1-0.1 0-0.1 0c-0.2-0.1-0.3-0.1-0.6 0.1h-0.1v0.1c-0.2 0.1-0.4 0.2-0.4 0.2q-0.1 0-0.1 0 0 0 0 0 0 0 0-0.1 0 0-0.1 0-0.1-0.1-0.2-0.1-0.1-0.1-0.2-0.2-0.1 0-0.2-0.1-0.1-0.1-0.2-0.1c-0.2-0.1-0.3-0.1-0.4-0.2h-0.1c0 0 0-0.1 0-0.5 0-0.2-0.1-0.5-0.1-0.5q0-0.1 0-0.1 0-0.1-0.1-0.1 0-0.1-0.1-0.1-0.1 0-0.1-0.1-0.2 0-0.3 0-0.2 0-0.3 0-0.2 0-0.3 0-0.2 0-0.3 0-0.2 0-0.3 0-0.2 0-0.3 0-0.2 0-0.3 0-0.2 0-0.3 0zm1.7 1.5c0 0.4 0 0.5 0.1 0.6 0.1 0.1 0.2 0.1 0.4 0.2q0.1 0 0.1 0 0.1 0 0.1 0.1 0.1 0 0.1 0 0.1 0 0.1 0 0.2 0.1 0.3 0.2 0.2 0 0.3 0.1 0.1 0.1 0.3 0.2 0.1 0.1 0.2 0.2l0.1 0.2q0.1 0 0.1 0 0 0 0.1 0 0 0.1 0 0.1 0.1 0 0.1 0 0.1 0 0.2 0 0 0 0.1-0.1 0.1 0 0.1 0 0.1 0 0.1-0.1 0.1 0 0.1 0 0.1-0.1 0.1-0.1 0.1 0 0.1-0.1 0.1 0 0.1 0 0 0 0.1 0.1 0 0 0 0 0 0 0 0.1 0 0 0.1 0c0 0.1 0.1 0.2 0.1 0.3q0 0 0 0.1c0.1 0 0.1 0.1 0.2 0.1q0 0.1 0 0.1 0 0 0 0 0 0 0 0 0 0.1 0 0.1 0 0 0 0 0 0 0 0 0 0-0.1 0.1 0 0 0 0l-0.1 0.1h-0.1l-0.2 0.1q0 0-0.1 0.1 0 0-0.1 0 0 0.1 0 0.1-0.1 0.1-0.1 0.2 0 0 0 0 0 0.1 0 0.1 0 0 0 0.1 0 0 0 0 0.1 0.2 0.1 0.5 0.1 0.2 0.1 0.5 0 0.2-0.1 0.4 0 0.3-0.1 0.5 0 0 0 0.1 0 0 0 0.1 0 0 0 0.1 0 0 0 0.1 0 0 0.1 0.1 0 0 0 0.1 0.1 0 0.1 0.1 0.1 0 0.1 0l0.2 0.1 0.1 0.1q0.1 0 0.1 0.1 0.1 0 0.1 0 0 0 0 0 0 0 0 0 0 0 0 0 0 0.1 0 0.1 0 0 0 0 0 0 0 0 0 0.1 0 0.1c-0.1 0.1-0.1 0.1-0.2 0.2v0.1c0 0-0.1 0.1-0.1 0.2q-0.1 0-0.1 0.1 0 0 0 0 0 0 0 0.1-0.1 0-0.1 0 0 0-0.1 0 0 0-0.1-0.1 0 0-0.1 0 0-0.1-0.1-0.1 0 0-0.1-0.1 0 0-0.1 0-0.1 0-0.1-0.1-0.1 0-0.2 0 0 0 0 0.1-0.1 0-0.1 0-0.1 0-0.1 0 0 0-0.1 0.1l-0.1 0.1q-0.1 0.1-0.3 0.3-0.2 0.1-0.4 0.2-0.2 0.1-0.4 0.2-0.2 0.1-0.4 0.1-0.1 0.1-0.1 0.1 0 0 0 0 0 0-0.1 0 0 0 0 0 0 0 0 0 0 0-0.1 0.1 0 0-0.1 0 0 0.1 0 0.1 0 0.1-0.1 0.1 0 0.1 0 0.1 0 0.1 0 0.1 0 0.1 0 0.2 0 0 0 0.1v0.3h-1v-0.3q0-0.1 0-0.1 0-0.1 0-0.2 0 0-0.1-0.1 0 0 0-0.1 0 0 0-0.1-0.1-0.1-0.1-0.1-0.1-0.1-0.1-0.1-0.1 0-0.2 0-0.2-0.1-0.4-0.2-0.2-0.1-0.4-0.2-0.2-0.1-0.4-0.2-0.2-0.2-0.3-0.3-0.1-0.1-0.2-0.1 0-0.1-0.1-0.1 0 0-0.1 0 0-0.1-0.1-0.1-0.1 0-0.1 0-0.1 0.1-0.1 0.1-0.1 0-0.1 0-0.1 0-0.1 0.1 0 0-0.1 0c0 0-0.1 0.1-0.3 0.2-0.1 0-0.1 0-0.1-0.1l-0.1-0.2c-0.1 0-0.1-0.1-0.1-0.1-0.1-0.1-0.2-0.3-0.2-0.3q0 0 0-0.1-0.1 0-0.1 0 0 0 0 0 0 0 0 0 0-0.1 0-0.1 0 0 0 0 0.1 0 0.1 0 0 0 0 0 0 0 0 0 0.1-0.1 0.2-0.1v-0.1c0.1 0 0.1 0 0.2-0.1 0.2-0.1 0.3-0.2 0.3-0.3q0-0.1 0.1-0.1 0-0.1 0-0.1 0-0.1-0.1-0.1 0-0.1 0-0.1 0-0.2-0.1-0.4 0-0.3 0-0.5 0-0.2 0-0.4 0.1-0.3 0.1-0.5 0 0 0-0.1 0.1 0 0.1-0.1 0 0 0 0-0.1-0.1-0.1-0.1c0-0.2-0.1-0.3-0.3-0.4-0.1-0.1-0.1-0.1-0.2-0.1q-0.1-0.1-0.1-0.1c-0.2-0.1-0.2-0.1-0.1-0.2q0 0 0 0 0 0 0 0 0 0 0 0 0-0.1 0-0.1c0 0 0.1-0.2 0.2-0.4 0.1-0.1 0.1-0.2 0.2-0.2 0-0.1 0-0.1 0.1-0.1 0.2 0.1 0.3 0.2 0.3 0.2q0 0 0.1 0 0 0.1 0 0.1 0.1 0 0.1 0 0 0 0.1 0 0 0.1 0.1 0.1 0.1 0 0.2 0 0.1 0 0.1-0.1 0.1 0 0.2-0.1 0-0.1 0.1-0.1 0.1-0.1 0.2-0.2 0.1 0 0.2-0.1 0.1-0.1 0.2-0.1 0.1-0.1 0.2-0.1 0-0.1 0.1-0.1 0.1-0.1 0.3-0.1 0.1-0.1 0.2-0.1c0.2-0.1 0.3-0.1 0.4-0.2 0.1-0.1 0.2-0.2 0.2-0.7q0 0 0-0.1 0 0 0 0 0-0.1 0-0.1 0-0.1 0-0.1c0 0 0.2 0 0.5 0h0.5z"/><path class="a" d="m8.7 6.4q-0.1 0-0.2 0-0.1 0-0.2 0.1-0.1 0-0.2 0-0.1 0.1-0.2 0.1-0.2 0.1-0.4 0.2-0.1 0.1-0.3 0.3-0.2 0.1-0.3 0.3-0.1 0.2-0.2 0.4-0.1 0.2-0.2 0.4-0.1 0.1-0.1 0.3 0 0.2-0.1 0.4 0 0.2 0.1 0.4 0 0.1 0 0.1 0 0.1 0 0.1 0 0.1 0 0.1 0 0 0 0.1 0 0 0.1 0.1 0 0 0 0.1 0 0.1 0 0.1 0.1 0.1 0.1 0.1 0 0.1 0.1 0.1 0.1 0.3 0.2 0.5 0.2 0.2 0.4 0.4 0.2 0.1 0.5 0.3 0.2 0.1 0.5 0.2 0.1 0 0.3 0 0.1 0 0.3 0.1 0.2 0 0.3-0.1 0.2 0 0.3 0 0.3-0.1 0.6-0.2 0.2-0.1 0.5-0.3 0.2-0.2 0.4-0.4 0.2-0.2 0.3-0.5 0.1-0.1 0.2-0.3 0-0.2 0.1-0.4 0-0.2 0-0.4 0-0.2 0-0.4 0-0.2-0.1-0.3 0-0.2-0.1-0.4-0.1-0.2-0.2-0.3-0.1-0.2-0.2-0.3-0.1-0.2-0.2-0.3-0.2-0.1-0.3-0.2-0.2-0.2-0.3-0.2-0.2-0.1-0.4-0.2-0.1 0-0.3-0.1-0.1 0-0.3 0-0.1 0-0.2 0-0.2 0-0.3 0zm0.4 1q0.1 0 0.1 0.1 0.1 0 0.1 0 0.1 0 0.1 0 0.1 0 0.1 0 0.1 0.1 0.2 0.1 0 0 0.1 0.1 0.1 0 0.2 0.1 0 0 0.1 0.1 0.1 0.1 0.1 0.2 0.1 0 0.2 0.1 0 0.1 0 0.2 0.1 0.1 0.1 0.2 0 0.1 0 0.2 0.1 0.1 0.1 0.2 0 0.1-0.1 0.2 0 0.1 0 0.2 0 0.2-0.1 0.4-0.1 0.1-0.3 0.3-0.1 0.1-0.2 0.2-0.2 0.1-0.4 0.2-0.1 0-0.2 0 0 0.1-0.1 0.1-0.1 0-0.2 0-0.1 0-0.2 0 0 0-0.1 0 0 0 0-0.1-0.1 0-0.1 0-0.1 0-0.1 0 0 0 0 0 0 0 0 0 0 0-0.1 0 0 0 0 0 0 0-0.1-0.1 0 0-0.1 0 0 0 0-0.1-0.1 0-0.1 0-0.1-0.1-0.1-0.1-0.1 0-0.1-0.1-0.1 0-0.1-0.1-0.1-0.1-0.1-0.1-0.1-0.1-0.1-0.2-0.1-0.1-0.1-0.2 0-0.1-0.1-0.2 0-0.1 0-0.2 0-0.1 0-0.3 0-0.2 0.1-0.3 0.1-0.2 0.2-0.3 0-0.2 0.2-0.3 0 0 0 0 0-0.1 0.1-0.1 0 0 0 0 0-0.1 0.1-0.1 0 0 0.1 0 0-0.1 0-0.1 0.1 0 0.1 0 0.1-0.1 0.1-0.1 0 0 0 0 0 0 0.1 0 0 0 0 0 0 0 0 0 0 0 0 0 0.1 0 0.1 0 0.1 0 0.1 0 0-0.1 0.1-0.1 0 0 0.1 0 0 0 0.1 0 0 0 0 0 0.1 0 0.1 0z"/><path class="a" d="m16.7 5.3q-0.1 0-0.2 0.1-0.1 0.1-0.1 0.1-0.1 0.1-0.1 0.2 0 0.1 0 0.2 0 0.1 0 0.1 0 0 0 0 0 0.1 0 0.1 0 0 0 0 0.1 0.1 0.1 0.2c0 0 0 0.1 0.1 0.2 0 0.1 0 0.1 0 0.2q0 0 0 0 0 0 0 0 0 0 0 0 0 0 0.1 0 0 0 0 0.1 0 0 0 0 0 0 0 0 0 0 0 0 0 0.1 0 0.1c0.1 0.3 0.1 0.3 0.2 0.6 0 0.2 0 0.3 0.1 0.7 0 0.1 0 0.6 0 0.8 0 0.2 0 0.8 0 0.9q-0.1 0.3-0.1 0.4 0 0.1 0 0.1 0 0.1 0 0.2-0.1 0.1-0.1 0.2 0 0.1 0 0.2-0.1 0.1-0.1 0.2 0 0.2-0.1 0.3c-0.1 0.2-0.2 0.5-0.2 0.6q-0.1 0.1-0.1 0.2c0 0-0.1 0.1-0.1 0.3q-0.3 0.4-0.5 0.9-0.3 0.4-0.7 0.8-0.3 0.4-0.7 0.7-0.4 0.3-0.8 0.6l-0.2 0.1q-0.1 0.1-0.3 0.2-0.1 0.1-0.3 0.2-0.1 0-0.3 0.1-0.1 0.1-0.3 0.1l-0.1 0.1c-0.1 0-0.5 0.2-0.6 0.2l-0.2 0.1c-0.1 0-0.2 0-0.3 0 0 0-0.1 0.1-0.2 0.1q0 0-0.1 0h-0.2l-0.2 0.1q0 0 0 0 0 0 0 0-0.1 0-0.1 0 0 0 0 0 0 0-0.1 0 0 0 0 0 0 0 0 0 0 0 0 0-0.1 0-0.2 0-0.1 0-0.2 0-0.1 0-0.2 0-0.1 0-0.2 0.1-0.2 0-0.4-0.1-0.2 0-0.4 0-0.2 0-0.5 0-0.2-0.1-0.4-0.1c-0.2-0.1-0.5-0.1-0.5-0.1l-0.1-0.1c-0.2 0-0.6-0.2-0.8-0.3-0.3-0.1-0.7-0.3-0.9-0.4-0.2-0.1-0.5-0.3-0.5-0.3q-0.2-0.1-0.1-0.1 0.1 0 0.1 0 0.1 0 0.1 0 0.1-0.1 0.1-0.1 0 0 0.1-0.1 0.1 0 0.1-0.1 0-0.1 0-0.2 0-0.1 0-0.2 0-0.1-0.1-0.2-0.1 0-0.1-0.1-0.1 0-0.1 0-0.1-0.1-0.1-0.1-0.1 0-0.1 0c-0.1 0-0.2-0.1-0.3-0.1-0.1 0-0.2-0.1-0.2-0.1q0 0 0 0 0 0 0 0 0 0-0.1 0 0 0 0 0l-0.4-0.1-0.4-0.2h-0.2c-0.2-0.1-0.5-0.2-0.5-0.2q-0.1 0-0.2 0-0.1 0-0.1 0.1-0.1 0-0.2 0 0 0.1-0.1 0.2 0 0 0 0 0 0.1 0 0.1 0 0.1 0 0.1 0 0 0 0.1 0 0 0 0.1c0 0.1 0.7 2.2 0.8 2.3q0 0 0 0 0 0.1 0 0.1 0 0 0 0 0 0 0.1 0 0.1 0.1 0.2 0.2 0.1 0 0.2 0 0.2-0.1 0.3-0.2 0.1-0.1 0.1-0.2 0 0 0-0.1 0 0 0 0 0.1-0.1 0-0.1 0-0.1 0-0.1c0-0.2 0-0.2 0.1-0.1q0.1 0.1 0.2 0.2 0.1 0 0.3 0.1 0.1 0.1 0.2 0.2 0.2 0.1 0.3 0.1l0.1 0.1c0 0 0.4 0.2 0.5 0.3h0.1l0.2 0.1c0.1 0 0.2 0.1 0.3 0.1q0 0 0 0 0 0 0 0 0 0 0 0 0 0 0 0 0 0 0 0 0 0 0 0 0 0 0 0 0 0 0 0 0.1 0 0.1 0 0 0.1 0.1 0.1 0 0 0 0 0.1 0 0.1 0c0.2 0.1 0.6 0.2 0.7 0.2l0.2 0.1q0.2 0 0.3 0 0.2 0.1 0.4 0.1 0.2 0 0.4 0 0.1 0.1 0.3 0.1 0.2 0 0.3 0 0.2 0 0.3 0 0.2 0 0.4 0 0.1 0 0.3 0 0.1 0 0.3-0.1 0.2 0 0.3 0 0.2 0 0.4-0.1 0.1 0 0.3 0l0.1-0.1q0.2 0 0.3 0l0.2-0.1c0.1 0 0.4-0.1 0.5-0.2h0.1c0.1 0 0.4-0.2 0.4-0.2 0.4-0.1 0.7-0.3 0.8-0.4q0.5-0.3 1-0.6 0.4-0.3 0.8-0.7 0.4-0.4 0.7-0.8 0.4-0.4 0.7-0.9c0-0.1 0.2-0.3 0.2-0.3q0 0 0-0.1c0.1 0 0.1-0.1 0.1-0.2 0.1-0.1 0.1-0.1 0.1-0.2 0.1-0.2 0.3-0.6 0.4-0.8q0 0 0-0.1c0.1-0.2 0.2-0.7 0.3-0.9q0-0.1 0.1-0.2 0-0.1 0-0.3 0-0.2 0.1-0.3 0-0.2 0-0.4 0-0.2 0-0.3 0.1-0.2 0.1-0.3 0-0.2 0-0.4 0-0.1 0-0.3 0-0.1-0.1-0.3 0-0.2 0-0.4 0-0.2-0.1-0.4 0-0.2 0-0.4-0.1-0.2-0.1-0.4c-0.1-0.1-0.1-0.2-0.1-0.3q-0.1-0.4-0.2-0.5 0-0.1 0-0.1 0 0 0 0 0 0 0 0 0 0 0 0 0 0 0-0.1 0 0 0 0-0.1 0-0.1 0 0 0 0 0 0 0 0 0 0-0.1 0-0.1 0-0.1 0-0.1 0 0-0.1 0 0-0.1 0-0.1-0.1 0-0.1-0.1-0.1 0-0.1 0-0.1-0.1-0.2-0.1 0 0-0.1 0z"/></svg>