<svg version="1.2" xmlns="http://www.w3.org/2000/svg" viewBox="0 0 16 16" width="16" height="16"><style>.a{fill:none}.b{fill:none;stroke:#fff;stroke-width:1.2}</style><path fill-rule="evenodd" class="a" d="m2 0h3.6c1.1 0 2 0.9 2 2v3.6c0 1.1-0.9 2-2 2h-3.6c-1.1 0-2-0.9-2-2v-3.6c0-1.1 0.9-2 2-2z"/><path fill-rule="evenodd" class="b" d="m2 0.6h3.6c0.8 0 1.4 0.6 1.4 1.4v3.6c0 0.8-0.6 1.4-1.4 1.4h-3.6c-0.8 0-1.4-0.6-1.4-1.4v-3.6c0-0.8 0.6-1.4 1.4-1.4z"/><path fill-rule="evenodd" class="a" d="m2 8.4h3.6c1.1 0 2 0.9 2 2v3.6c0 1.1-0.9 2-2 2h-3.6c-1.1 0-2-0.9-2-2v-3.6c0-1.1 0.9-2 2-2z"/><path fill-rule="evenodd" class="b" d="m2 9h3.6c0.8 0 1.4 0.6 1.4 1.4v3.6c0 0.8-0.6 1.4-1.4 1.4h-3.6c-0.8 0-1.4-0.6-1.4-1.4v-3.6c0-0.8 0.6-1.4 1.4-1.4z"/><path fill-rule="evenodd" class="a" d="m10.4 0h3.6c1.1 0 2 0.9 2 2v3.6c0 1.1-0.9 2-2 2h-3.6c-1.1 0-2-0.9-2-2v-3.6c0-1.1 0.9-2 2-2z"/><path fill-rule="evenodd" class="b" d="m10.4 0.6h3.6c0.8 0 1.4 0.6 1.4 1.4v3.6c0 0.8-0.6 1.4-1.4 1.4h-3.6c-0.8 0-1.4-0.6-1.4-1.4v-3.6c0-0.8 0.6-1.4 1.4-1.4z"/><path fill-rule="evenodd" class="a" d="m10.4 8.4h3.6c1.1 0 2 0.9 2 2v3.6c0 1.1-0.9 2-2 2h-3.6c-1.1 0-2-0.9-2-2v-3.6c0-1.1 0.9-2 2-2z"/><path fill-rule="evenodd" class="b" d="m10.4 9h3.6c0.8 0 1.4 0.6 1.4 1.4v3.6c0 0.8-0.6 1.4-1.4 1.4h-3.6c-0.8 0-1.4-0.6-1.4-1.4v-3.6c0-0.8 0.6-1.4 1.4-1.4z"/></svg>