<svg version="1.2" xmlns="http://www.w3.org/2000/svg" viewBox="0 0 16 16" width="16" height="16"><defs><clipPath clipPathUnits="userSpaceOnUse" id="cp1"><path d="m-4-4h24v24h-24z"/></clipPath></defs><style>.a{fill:#fff}</style><g clip-path="url(#cp1)"><path class="a" d="m14.1 7.3h-1.5v-3.8h-1.5v2.3h-7.4v-2.3h-1.5v10.5h4.5v1.5h-4.5q-0.1 0-0.3-0.1-0.1 0-0.3-0.1-0.1 0-0.2-0.1-0.1-0.1-0.2-0.2-0.2-0.1-0.2-0.2-0.1-0.1-0.2-0.3 0-0.1-0.1-0.2 0-0.2 0-0.3v-10.5q0-0.1 0-0.3 0.1-0.1 0.1-0.2 0.1-0.2 0.2-0.3 0-0.1 0.2-0.2 0.1-0.1 0.2-0.2 0.1-0.1 0.2-0.2 0.2 0 0.3 0 0.2-0.1 0.3-0.1h3.1q0.1-0.1 0.1-0.3 0.1-0.1 0.2-0.3 0.1-0.1 0.2-0.2 0.2-0.1 0.3-0.2 0.2-0.1 0.3-0.2 0.2-0.1 0.3-0.1 0.2-0.1 0.4-0.1 0.1-0.1 0.3-0.1 0.2 0 0.4 0.1 0.1 0 0.3 0 0.2 0.1 0.3 0.2 0.2 0.1 0.3 0.2 0.2 0.1 0.3 0.2 0.1 0.1 0.2 0.2 0.1 0.2 0.2 0.3 0.1 0.2 0.1 0.3h3.1q0.2 0 0.3 0.1 0.2 0 0.3 0 0.1 0.1 0.3 0.2 0.1 0.1 0.2 0.2 0.1 0.1 0.2 0.2 0.1 0.1 0.1 0.3 0.1 0.1 0.1 0.2 0 0.2 0 0.3zm-6.7-3.7q0.1 0 0.2 0 0 0 0.1-0.1 0.1 0 0.1 0 0.1-0.1 0.1-0.1 0.1-0.1 0.1-0.1 0.1-0.1 0.1-0.2 0 0 0-0.1 0.1-0.1 0.1-0.1 0-0.1-0.1-0.2 0-0.1 0-0.1 0-0.1-0.1-0.2 0 0-0.1-0.1 0 0-0.1-0.1 0 0-0.1 0-0.1-0.1-0.1-0.1-0.1 0-0.2 0-0.1 0-0.1 0-0.1 0-0.2 0.1 0 0-0.1 0-0.1 0.1-0.1 0.1-0.1 0.1-0.1 0.1-0.1 0.1-0.1 0.2 0 0 0 0.1 0 0.1 0 0.2 0 0 0 0.1 0 0.1 0 0.1 0 0.1 0.1 0.2 0 0 0.1 0.1 0 0 0.1 0.1 0.1 0 0.1 0 0.1 0.1 0.2 0.1 0 0 0.1 0z"/><path class="a" d="m10 14.7l-3.1-3.2 1-1.1 2.1 2.2 4.2-4.2 1.1 1z"/></g></svg>