<svg version="1.2" xmlns="http://www.w3.org/2000/svg" viewBox="0 0 12 16" width="12" height="16"><style>.a{fill:none}.b{fill:#fff}</style><path fill-rule="evenodd" class="a" d="m-6-4h24v24h-24z"/><path class="b" d="m6 7.7q0.8 0.1 1.5-0.2 0.8-0.3 1.3-0.9 0.6-0.5 0.9-1.2 0.3-0.8 0.4-1.5-0.1-0.8-0.4-1.6-0.3-0.7-0.9-1.2-0.5-0.6-1.3-0.9-0.7-0.3-1.5-0.2-0.8-0.1-1.5 0.2-0.8 0.3-1.3 0.9-0.6 0.5-0.9 1.2-0.3 0.8-0.4 1.6 0.1 0.7 0.4 1.5 0.3 0.7 0.9 1.2 0.5 0.6 1.3 0.9 0.7 0.3 1.5 0.2zm0-6.4q0.5-0.1 1 0.1 0.5 0.2 0.9 0.6 0.4 0.4 0.6 0.8 0.2 0.5 0.2 1 0 0.6-0.2 1.1-0.2 0.4-0.6 0.8-0.4 0.4-0.9 0.6-0.5 0.2-1 0.1-0.5 0.1-1-0.1-0.5-0.2-0.9-0.6-0.4-0.4-0.6-0.8-0.2-0.5-0.2-1.1 0-0.5 0.2-1 0.2-0.4 0.6-0.8 0.4-0.4 0.9-0.6 0.5-0.1 1-0.1z"/><path class="b" d="m6 9.5q-1.2 0-2.3 0.4-1.1 0.4-1.9 1.3-0.8 0.8-1.3 1.9-0.5 1-0.5 2.2 0 0.3 0.2 0.5 0.2 0.1 0.5 0.2 0.2-0.1 0.4-0.2 0.2-0.2 0.2-0.5 0-0.9 0.4-1.7 0.4-0.9 1-1.5 0.7-0.7 1.5-1 0.9-0.3 1.8-0.3 0.9 0 1.8 0.3 0.8 0.3 1.5 1 0.6 0.6 1 1.5 0.4 0.8 0.4 1.7 0 0.3 0.2 0.5 0.2 0.2 0.4 0.2 0.3 0 0.5-0.2 0.2-0.2 0.2-0.5 0-1.2-0.5-2.2-0.5-1.1-1.3-1.9-0.8-0.9-1.9-1.3-1.1-0.4-2.3-0.4z"/></svg>