<svg xmlns="http://www.w3.org/2000/svg" xmlns:xlink="http://www.w3.org/1999/xlink" width="18" height="18" viewBox="0 0 18 18">
  <defs>
    <clipPath id="clip-path">
      <rect id="Rectangle_231757" data-name="Rectangle 231757" width="18" height="18" transform="translate(1628 1025)" fill="#fff" stroke="#707070" stroke-width="1"/>
    </clipPath>
  </defs>
  <g id="Mask_Group_219699" data-name="Mask Group 219699" transform="translate(-1628 -1025)" clip-path="url(#clip-path)">
    <g id="clock" transform="translate(1630 1027)">
      <path id="Path_564806" data-name="Path 564806" d="M7,0a7,7,0,1,0,7,7A7,7,0,0,0,7,0ZM7,12.833A5.833,5.833,0,1,1,12.833,7,5.833,5.833,0,0,1,7,12.833Z" fill="#838383"/>
      <path id="Path_564807" data-name="Path 564807" d="M10.448,6a.68.68,0,0,0-.68.68V9.618L7.478,11.054A.681.681,0,1,0,8.2,12.209l2.609-1.631a.68.68,0,0,0,.319-.583V6.68A.68.68,0,0,0,10.448,6Z" transform="translate(-3.204 -2.864)" fill="#838383"/>
    </g>
  </g>
</svg>
