<svg xmlns="http://www.w3.org/2000/svg" width="34" height="34" viewBox="0 0 34 34">
  <path id="photo_24dp_5F6368_FILL0_wght400_GRAD0_opsz24" d="M123.778-806a3.638,3.638,0,0,1-2.668-1.11,3.638,3.638,0,0,1-1.11-2.668v-26.444a3.638,3.638,0,0,1,1.11-2.668,3.638,3.638,0,0,1,2.668-1.11h26.444a3.638,3.638,0,0,1,2.668,1.11,3.638,3.638,0,0,1,1.11,2.668v26.444a3.638,3.638,0,0,1-1.11,2.668,3.638,3.638,0,0,1-2.668,1.11Zm0-3.778h26.444v-26.444H123.778Zm1.889-3.778h22.667L141.25-823l-5.667,7.555-4.25-5.667Zm-1.889,3.778v0Z" transform="translate(-120 840)" fill="#e0e0e0"/>
</svg>
