<svg xmlns="http://www.w3.org/2000/svg" width="17.563" height="11.151" viewBox="0 0 17.563 11.151">
  <g id="Group_144447" data-name="Group 144447" transform="translate(-1803.219 -352.422)">
    <path id="Path_342839" data-name="Path 342839" d="M19.441,10.175c-.562-.884-3.652-5.319-8.9-5.176-4.854.111-7.663,3.981-8.427,5.176a.733.733,0,0,0,0,.8c.553.868,3.511,5.176,8.681,5.176h.219c4.854-.111,7.672-3.981,8.427-5.176A.733.733,0,0,0,19.441,10.175ZM10.97,14.554c-3.783.08-6.25-2.859-7.022-3.981.878-1.282,3.169-3.9,6.68-3.981,3.766-.088,6.241,2.859,7.022,3.981C16.746,11.855,14.481,14.474,10.97,14.554Z" transform="translate(1801.223 347.427)" fill="#408dfb"/>
    <path id="Path_342840" data-name="Path 342840" d="M11.123,8.5a2.623,2.623,0,1,0,2.623,2.623A2.623,2.623,0,0,0,11.123,8.5Zm0,3.747a1.124,1.124,0,1,1,1.124-1.124A1.124,1.124,0,0,1,11.123,12.247Z" transform="translate(1800.875 346.877)" fill="#408dfb"/>
  </g>
</svg>
